<svg xmlns="http://www.w3.org/2000/svg" width="59" height="62" viewBox="0 0 59 62" fill="none">
  <path d="M56.362 0.671875H3.02973C1.74715 0.671875 0.710938 1.75961 0.710938 3.10597V59.0902C0.710938 60.4366 1.74715 61.5243 3.02973 61.5243H56.362C57.6445 61.5243 58.6807 60.4366 58.6807 59.0902V3.10597C58.6807 1.75961 57.6445 0.671875 56.362 0.671875ZM54.0432 56.6561H40.7029V37.9592H48.2389L49.3693 28.7781H40.7029V22.9134C40.7029 20.2512 41.4057 18.4408 45.0361 18.4408H49.6664V10.2257C48.8621 10.1116 46.1158 9.8606 42.913 9.8606C36.2319 9.8606 31.6596 14.1431 31.6596 22.0007V28.7705H24.109V37.9516H31.6668V56.6561H5.34852V5.54007H54.0432V56.6561Z" fill="white"/>
</svg>