<svg xmlns="http://www.w3.org/2000/svg" width="209" height="68" viewBox="0 0 209 68" fill="none">
  <path d="M26.2888 29.3521C23.2983 29.3521 20.3079 29.3521 17.3175 29.3521C17.265 29.3521 17.2125 29.3521 17.1601 29.3521C17.0551 29.3521 17.0027 29.297 17.0027 29.1869C17.0027 29.1318 17.0027 29.0217 17.0027 28.9666C17.0027 25.3318 17.0027 21.6419 17.0027 18.0071C17.0027 17.7868 17.0027 17.5665 17.0027 17.3463L0.476562 3.02734C0.476562 3.30271 0.476562 3.57807 0.476562 3.79836C0.476562 24.0651 0.476562 44.3319 0.476562 64.5987C0.476562 64.874 0.476562 65.0943 0.529026 65.3697C0.633953 66.1407 1.05366 66.5813 1.7357 66.7465C1.94555 66.8016 2.15541 66.8016 2.36526 66.8016C6.56237 66.8016 10.8119 66.8016 15.0091 66.8016C15.1664 66.8016 15.2714 66.8016 15.4288 66.8016C16.3731 66.6914 16.8978 66.1407 17.0027 65.2045C17.0027 65.0392 17.0027 64.8189 17.0027 64.6537C17.0027 57.7696 17.0027 50.8855 17.0027 43.9464C17.0027 43.4507 16.9502 43.5058 17.3699 43.5058C21.3572 43.5058 25.3969 43.5058 29.3842 43.5058C30.276 43.5058 31.1679 43.5058 32.1123 43.3957C33.3714 43.2855 34.6305 43.0101 35.8372 42.5696C36.7816 42.2391 37.6735 41.8536 38.5653 41.358C39.3523 40.9174 40.1392 40.4217 40.8737 39.871C41.2935 39.5956 41.7132 39.2652 42.0804 38.9348L29.6989 28.3057C28.7021 28.9666 27.6004 29.3521 26.2888 29.3521Z" fill="white"/>
  <path d="M49.5341 20.3215C49.4816 19.5504 49.3767 18.7243 49.2193 17.9533C48.957 16.5765 48.6422 15.1997 48.1175 13.933C47.9602 13.4924 47.8028 13.1069 47.6454 12.6663C47.3306 11.8953 46.9633 11.1794 46.5436 10.4084C45.8616 9.14169 45.0222 7.93009 44.0778 6.88371C43.4483 6.22283 42.8187 5.50689 42.1367 4.90109C41.717 4.51558 41.2448 4.13007 40.8251 3.79963C39.8283 3.08369 38.779 2.42281 37.6772 1.87209C36.523 1.32136 35.3164 0.880779 34.0572 0.550342C32.903 0.219906 31.6964 0.0546875 30.4372 0.0546875C21.0462 0.0546875 11.6552 0.0546875 2.21166 0.0546875C1.84441 0.0546875 1.52963 0.164833 1.21484 0.330051L17.2163 14.3185C20.1543 14.3185 23.0923 14.3185 26.0303 14.3185C27.3943 14.3185 28.6535 14.649 29.7027 15.5301C30.4372 16.1359 31.0668 16.8519 31.539 17.678C32.1161 18.6693 32.4308 19.7156 32.5882 20.8171C32.7456 21.9186 32.6407 23.02 32.3259 24.1215C32.0636 25.0026 31.6964 25.8287 31.2242 26.5997L43.5532 37.394C44.4975 36.4027 45.2845 35.3012 46.019 34.1447C46.806 32.878 47.488 31.5012 47.9602 30.0693C48.2225 29.2983 48.5373 28.5273 48.7471 27.7012C49.1668 25.9939 49.4291 24.2316 49.4816 22.4693C49.5865 21.7533 49.5865 21.0374 49.5341 20.3215Z" fill="white"/>
  <path d="M43.6546 37.3919L43.6021 37.447C43.5497 37.5021 43.2874 37.7774 43.1824 37.8876C42.8152 38.2731 42.4479 38.6035 42.0807 38.9339L29.6992 28.2498C30.2239 27.8643 30.696 27.4237 31.1682 26.873C31.2207 26.7629 31.2731 26.7078 31.3256 26.5977L43.6546 37.3919Z" fill="#2C2052"/>
  <path d="M1.2652 0.386719C1.21274 0.441791 1.10781 0.496864 1.05535 0.551937C0.793028 0.772228 0.635636 1.04759 0.530708 1.37803C0.478245 1.65339 0.425781 1.92876 0.425781 2.20412C0.425781 2.47948 0.425781 2.80992 0.425781 3.08528L16.9519 17.3491C16.9519 16.3578 16.9519 15.3665 16.9519 14.4303C17.0568 14.4303 17.1618 14.4303 17.2667 14.4303L1.2652 0.386719Z" fill="#2C2052"/>
  <path d="M74.9306 37.5585C74.9306 43.5063 75.0355 44.2223 78.4982 44.6078L79.9671 44.773C80.2819 45.0484 80.177 46.0397 79.8622 46.2049C76.7668 46.0948 75.0355 46.0397 72.8321 46.0397C70.5761 46.0397 68.635 46.0948 66.2741 46.2049C65.9593 46.0397 65.8544 45.1035 66.1691 44.773L67.3234 44.6078C70.4712 44.1672 70.5761 43.4513 70.5761 37.5585V16.6859C70.5761 11.8946 70.4712 10.9033 68.0578 10.6279L66.1167 10.4076C65.7494 10.0772 65.8019 9.19603 66.2216 8.97574C69.0547 8.59023 72.4123 8.53516 76.8718 8.53516C81.3312 8.53516 84.6889 9.14096 87.2072 10.7931C89.673 12.4453 91.5092 15.3642 91.5092 19.2743C91.5092 24.5062 88.4138 27.0947 86.1054 28.2512C83.7445 29.4628 80.859 29.9584 78.6555 29.9584C78.2883 29.7932 78.2883 28.9671 78.6031 28.8019C84.4266 27.6454 86.5251 24.2309 86.5251 19.2743C86.5251 13.7671 83.4298 10.2424 77.8686 10.2424C75.0355 10.2424 74.9831 10.4627 74.9831 12.2801V37.5585H74.9306Z" fill="white"/>
  <path d="M112.444 32.9331C112.077 31.6664 111.867 31.5012 110.24 31.5012H102.108C100.744 31.5012 100.43 31.6664 100.062 32.878L98.1736 38.8259C97.3867 41.3592 96.967 42.9013 96.967 43.5071C96.967 44.1679 97.2293 44.4984 98.5409 44.6636L100.325 44.8288C100.692 45.1042 100.692 46.0404 100.22 46.2607C98.8032 46.1505 97.1244 46.1505 94.6061 46.0955C92.8223 46.0955 90.8812 46.2056 89.4122 46.2607C89.0974 46.0404 88.9925 45.1042 89.3073 44.8288L91.091 44.6636C92.4026 44.5534 93.5568 43.9476 94.3438 41.9099C95.2881 39.3215 96.8096 35.6317 99.0655 29.2983L104.574 14.0431C105.309 12.0055 105.676 10.904 105.466 10.0228C106.778 9.63733 107.67 8.59095 108.247 7.875C108.561 7.875 108.929 7.98515 109.034 8.37065C109.716 10.8489 110.608 13.4373 111.395 15.9707L118.792 38.7157C120.366 43.5621 121.048 44.4433 123.356 44.7187L124.825 44.8839C125.193 45.1592 125.088 46.0955 124.825 46.3158C122.622 46.2056 120.733 46.1505 118.32 46.1505C115.749 46.1505 113.703 46.2607 112.129 46.3158C111.709 46.0955 111.657 45.1592 112.024 44.8839L113.598 44.7187C114.752 44.6085 115.487 44.2781 115.487 43.7273C115.487 43.1215 115.224 42.0752 114.805 40.7534L112.444 32.9331ZM101.794 27.8664C101.374 29.1881 101.426 29.2432 102.948 29.2432H109.558C111.132 29.2432 111.237 29.0229 110.765 27.4809L107.879 18.2837C107.46 16.9069 106.988 15.42 106.62 14.704H106.515C106.358 14.9794 105.833 16.3562 105.204 18.0635L101.794 27.8664Z" fill="white"/>
  <path d="M130.488 17.2917C130.488 11.2888 130.383 10.3526 127.183 10.0772L125.819 9.96705C125.504 9.74676 125.609 8.70037 125.924 8.53516C128.6 8.6453 130.436 8.70038 132.692 8.70038C134.843 8.70038 136.679 8.6453 139.355 8.53516C139.669 8.70037 139.774 9.74676 139.46 9.96705L138.096 10.0772C134.895 10.3526 134.79 11.3439 134.79 17.2917V37.4483C134.79 43.4513 134.895 44.2223 138.096 44.6078L139.46 44.773C139.774 44.9933 139.669 46.0397 139.355 46.2049C136.679 46.0948 134.843 46.0397 132.692 46.0397C130.436 46.0397 128.6 46.0948 125.924 46.2049C125.609 46.0397 125.504 45.1035 125.819 44.773L127.183 44.6078C130.383 44.2223 130.488 43.3962 130.488 37.4483V17.2917Z" fill="white"/>
  <path d="M148.117 17.1816C148.117 11.2888 148.012 10.4627 144.811 10.0772L143.972 9.96705C143.657 9.74676 143.762 8.70037 144.077 8.53516C146.385 8.6453 148.222 8.70038 150.425 8.70038H160.551C164.013 8.70038 167.161 8.70037 167.843 8.53516C168.158 9.47139 168.473 13.5468 168.683 16.0801C168.473 16.4106 167.581 16.5207 167.318 16.1903C166.532 13.5468 166.007 11.5642 163.226 10.7931C162.072 10.5178 160.393 10.4627 157.98 10.4627H154.098C152.471 10.4627 152.471 10.5728 152.471 12.7207V24.0106C152.471 25.6077 152.629 25.6077 154.255 25.6077H157.403C159.659 25.6077 161.338 25.4976 161.967 25.2773C162.597 25.057 163.016 24.7265 163.279 23.2946L163.698 20.9816C163.961 20.6512 164.905 20.6512 165.115 21.0367C165.115 22.4135 164.905 24.6164 164.905 26.7642C164.905 28.8019 165.115 30.9498 165.115 32.2164C164.905 32.6019 163.961 32.6019 163.698 32.2715L163.226 30.0686C163.016 29.0773 162.649 28.1961 161.547 27.9208C160.813 27.7005 159.501 27.6454 157.403 27.6454H154.255C152.629 27.6454 152.471 27.7005 152.471 29.1874V37.173C152.471 40.1469 152.629 42.0745 153.52 43.0658C154.15 43.7266 155.304 44.3875 160.026 44.3875C164.171 44.3875 165.745 44.1672 166.899 43.5614C167.843 43.0107 169.312 41.0281 170.729 38.0541C171.096 37.7788 171.883 37.944 172.093 38.4396C171.725 40.4223 170.361 44.773 169.679 46.3151C164.853 46.2049 160.026 46.1498 155.252 46.1498H150.425C148.117 46.1498 146.28 46.2049 143.08 46.3151C142.765 46.1498 142.66 45.2136 142.975 44.8832L144.759 44.7179C147.854 44.4426 148.117 43.5614 148.117 37.6686V17.1816Z" fill="white"/>
  <path d="M179.073 17.2366C179.073 11.8395 178.916 10.9033 176.712 10.6279L174.981 10.4076C174.614 10.1323 174.614 9.19603 175.033 8.97574C178.076 8.70038 181.749 8.53516 187.048 8.53516C190.405 8.53516 193.553 8.81052 196.071 10.2424C198.642 11.6743 200.531 14.2076 200.531 18.1729C200.531 23.57 196.491 26.4889 193.815 27.6454C193.553 27.9758 193.815 28.5266 194.078 29.0222C198.38 36.3469 201.265 40.8628 204.885 44.0571C205.777 44.8832 207.141 45.544 208.61 45.6542C208.873 45.7643 208.925 46.2049 208.663 46.4252C208.19 46.5904 207.299 46.7006 206.302 46.7006C201.737 46.7006 198.957 45.2687 195.127 39.5962C193.71 37.5034 191.507 33.5932 189.828 31.0599C189.041 29.7932 188.149 29.2425 185.998 29.2425C183.585 29.2425 183.48 29.2976 183.48 30.5092V37.6136C183.48 43.5614 183.585 44.2223 186.733 44.6629L187.887 44.8281C188.202 45.1034 188.097 46.0948 187.782 46.26C185.369 46.1498 183.532 46.0948 181.381 46.0948C179.126 46.0948 177.184 46.1498 174.666 46.26C174.351 46.0948 174.246 45.2687 174.561 44.8281L175.925 44.6629C179.073 44.2774 179.178 43.5063 179.178 37.6136V17.2366H179.073ZM183.48 25.3323C183.48 26.3236 183.48 26.9845 183.637 27.2048C183.795 27.37 184.582 27.4802 187.362 27.4802C189.304 27.4802 191.35 27.2599 192.924 25.9932C194.392 24.7816 195.599 22.799 195.599 18.999C195.599 14.5381 192.976 10.2975 186.995 10.2975C183.637 10.2975 183.48 10.5178 183.48 12.1149V25.3323Z" fill="white"/>
  <path d="M68.6332 55.6252C70.0498 54.4687 71.7811 53.918 73.7747 53.918C74.824 53.918 76.2405 54.1383 77.1324 54.4136C77.3422 54.4687 77.4996 54.5238 77.657 54.4687C77.657 54.9093 77.7619 56.176 77.9193 57.4426C77.8144 57.6078 77.5521 57.6078 77.3947 57.4977C77.1324 56.1209 76.2405 54.5788 73.4599 54.5788C70.5219 54.5788 68.0561 56.5064 68.0561 60.6919C68.0561 64.9325 70.5744 67.2456 73.7222 67.2456C76.188 67.2456 77.2898 65.5383 77.7095 64.3818C77.8669 64.2716 78.1292 64.3267 78.1817 64.4369C78.0243 65.4832 77.5521 66.805 77.2898 67.1905C77.0799 67.2456 76.8176 67.3006 76.6077 67.4108C76.188 67.576 74.824 67.8514 73.5648 67.8514C71.8335 67.8514 70.2071 67.4659 68.7906 66.5296C67.2692 65.4282 66.0625 63.6108 66.0625 61.0224C66.2199 58.7093 67.1642 56.7818 68.6332 55.6252Z" fill="white"/>
  <path d="M89.1484 60.9677C89.1484 56.9474 92.034 53.8633 95.9687 53.8633C100.376 53.8633 102.579 57.2227 102.579 60.7474C102.579 64.8228 99.6412 67.7416 95.9687 67.7416C91.7192 67.7967 89.1484 64.6025 89.1484 60.9677ZM100.638 61.4082C100.638 58.1039 99.2215 54.5242 95.6015 54.5242C93.6079 54.5242 91.0371 55.956 91.0371 60.3619C91.0371 63.3358 92.4012 67.1909 96.1786 67.1909C98.487 67.1358 100.638 65.3735 100.638 61.4082Z" fill="white"/>
  <path d="M115.433 57.2208C115.433 55.128 115.381 54.7976 114.174 54.6874L113.702 54.6324C113.597 54.5773 113.649 54.1918 113.754 54.1367C114.803 54.1918 115.485 54.1918 116.22 54.1918C116.954 54.1918 117.637 54.1918 118.581 54.1367C118.686 54.1918 118.738 54.5773 118.633 54.6324L118.161 54.6874C117.007 54.7976 117.007 55.128 117.007 57.2208V64.215C117.007 65.4817 117.059 65.9774 117.427 66.3629C117.637 66.5832 118.004 66.8034 119.525 66.8034C121.152 66.8034 121.571 66.7484 121.834 66.5281C122.201 66.3078 122.726 65.5918 123.093 64.5455C123.198 64.4353 123.565 64.5455 123.565 64.6556C123.565 64.8759 123.04 66.9136 122.778 67.4643C121.781 67.4092 119.997 67.4092 118.004 67.4092H116.22C115.433 67.4092 114.803 67.4092 113.754 67.4643C113.649 67.4092 113.597 67.0788 113.702 66.9687L114.279 66.9136C115.381 66.8034 115.433 66.5281 115.433 64.3802V57.2208Z" fill="white"/>
  <path d="M135.578 57.2208C135.578 55.128 135.525 54.7976 134.318 54.6874L133.846 54.6324C133.741 54.5773 133.794 54.1918 133.899 54.1367C134.948 54.1918 135.63 54.1918 136.365 54.1918C137.099 54.1918 137.781 54.1918 138.725 54.1367C138.83 54.1918 138.883 54.5773 138.778 54.6324L138.306 54.6874C137.151 54.7976 137.151 55.128 137.151 57.2208V64.215C137.151 65.4817 137.204 65.9774 137.571 66.3629C137.781 66.5832 138.148 66.8034 139.67 66.8034C141.296 66.8034 141.716 66.7484 141.978 66.5281C142.345 66.3078 142.87 65.5918 143.237 64.5455C143.342 64.4353 143.709 64.5455 143.709 64.6556C143.709 64.8759 143.185 66.9136 142.923 67.4643C141.926 67.4092 140.142 67.4092 138.148 67.4092H136.365C135.578 67.4092 134.948 67.4092 133.899 67.4643C133.794 67.4092 133.741 67.0788 133.846 66.9687L134.423 66.9136C135.525 66.8034 135.578 66.5281 135.578 64.3802V57.2208Z" fill="white"/>
  <path d="M155.722 57.2208C155.722 55.128 155.67 54.8527 154.568 54.6874L154.253 54.6324C154.148 54.5773 154.201 54.1918 154.306 54.1367C155.145 54.1918 155.775 54.1918 156.562 54.1918H160.182C161.388 54.1918 162.542 54.1918 162.752 54.1367C162.857 54.4672 162.962 55.899 163.067 56.7802C163.015 56.8904 162.7 56.9454 162.595 56.8353C162.333 55.899 162.123 55.1831 161.126 54.9077C160.706 54.7976 160.129 54.7976 159.29 54.7976H157.926C157.348 54.7976 157.348 54.8527 157.348 55.6237V59.644C157.348 60.1947 157.401 60.1947 157.978 60.1947H159.08C159.867 60.1947 160.496 60.1396 160.706 60.0846C160.916 60.0295 161.073 59.8643 161.178 59.3686L161.336 58.5425C161.441 58.4324 161.755 58.4324 161.808 58.5425C161.808 59.0382 161.755 59.8092 161.755 60.5802C161.755 61.2962 161.808 62.0672 161.808 62.5078C161.755 62.673 161.388 62.673 161.336 62.5078L161.178 61.7368C161.126 61.3512 160.968 61.0759 160.601 60.9657C160.339 60.9107 159.867 60.8556 159.132 60.8556H158.031C157.453 60.8556 157.401 60.8556 157.401 61.4063V64.215C157.401 65.2614 157.453 65.9774 157.768 66.3078C157.978 66.5281 158.398 66.7484 160.077 66.7484C161.546 66.7484 162.123 66.6933 162.542 66.473C162.91 66.2527 163.382 65.5918 163.906 64.5455C164.064 64.4353 164.326 64.4904 164.379 64.7107C164.221 65.4266 163.749 66.9687 163.539 67.5194C161.808 67.4643 160.129 67.4643 158.398 67.4643H156.666C155.827 67.4643 155.197 67.4643 154.043 67.5194C153.938 67.4643 153.886 67.1339 153.991 67.0237L154.62 66.9687C155.722 66.8585 155.827 66.5832 155.827 64.4353V57.2208H155.722Z" fill="white"/>
  <path d="M186.361 65.4286C186.361 66.2546 186.466 66.6952 186.833 66.8604C186.885 66.9155 186.885 67.0257 186.833 67.0807C186.623 67.0807 186.256 67.1358 185.889 67.246C184.892 67.5213 183.475 67.7416 182.478 67.7416C180.222 67.7416 178.124 67.0807 176.655 65.5387C175.501 64.3271 174.871 62.73 174.871 60.9677C174.871 59.2604 175.396 57.5532 176.602 56.2314C177.862 54.7995 179.75 53.8633 182.688 53.8633C183.79 53.8633 184.787 54.0836 185.102 54.1386C185.469 54.1937 186.046 54.3589 186.308 54.3039C186.308 54.9647 186.413 56.0111 186.571 57.2227C186.518 57.3879 186.151 57.3879 186.046 57.2778C185.521 55.13 184.052 54.414 182.111 54.414C178.386 54.414 176.76 57.1676 176.76 60.1966C176.76 64.0517 178.648 67.0807 182.478 67.0807C183.685 67.0807 184.367 66.8054 184.577 66.4749C184.682 66.3097 184.787 65.9793 184.787 65.3184V64.4923C184.787 62.7851 184.734 62.6749 183.528 62.5648L182.688 62.4546C182.531 62.3996 182.531 62.014 182.688 61.959C183.265 62.014 184.315 62.014 185.416 62.014C186.151 62.014 186.833 62.014 187.462 61.959C187.62 62.014 187.62 62.3445 187.462 62.4546L187.148 62.5097C186.361 62.6198 186.308 63.1706 186.308 64.217V65.4286H186.361Z" fill="white"/>
  <path d="M200.265 57.2208C200.265 55.128 200.213 54.8527 199.111 54.6874L198.796 54.6324C198.691 54.5773 198.744 54.1918 198.849 54.1367C199.688 54.1918 200.318 54.1918 201.104 54.1918H204.724C205.931 54.1918 207.085 54.1918 207.295 54.1367C207.4 54.4672 207.505 55.899 207.61 56.7802C207.558 56.8904 207.243 56.9454 207.138 56.8353C206.876 55.899 206.666 55.1831 205.669 54.9077C205.249 54.7976 204.672 54.7976 203.833 54.7976H202.469C201.891 54.7976 201.891 54.8527 201.891 55.6237V59.644C201.891 60.1947 201.944 60.1947 202.521 60.1947H203.623C204.41 60.1947 205.039 60.1396 205.249 60.0846C205.459 60.0295 205.616 59.8643 205.721 59.3686L205.879 58.5425C205.984 58.4324 206.298 58.4324 206.351 58.5425C206.351 59.0382 206.298 59.8092 206.298 60.5802C206.298 61.2962 206.351 62.0672 206.351 62.5078C206.298 62.673 205.931 62.673 205.879 62.5078L205.721 61.7368C205.669 61.3512 205.511 61.0759 205.144 60.9657C204.882 60.9107 204.41 60.8556 203.675 60.8556H202.573C201.996 60.8556 201.944 60.8556 201.944 61.4063V64.215C201.944 65.2614 201.996 65.9774 202.311 66.3078C202.521 66.5281 202.941 66.7484 204.62 66.7484C206.089 66.7484 206.666 66.6933 207.085 66.473C207.453 66.2527 207.925 65.5918 208.449 64.5455C208.607 64.4353 208.869 64.4904 208.922 64.7107C208.764 65.4266 208.292 66.9687 208.082 67.5194C206.351 67.4643 204.672 67.4643 202.941 67.4643H201.209C200.37 67.4643 199.74 67.4643 198.586 67.5194C198.481 67.4643 198.429 67.1339 198.534 67.0237L199.163 66.9687C200.265 66.8585 200.37 66.5832 200.37 64.4353V57.2208H200.265Z" fill="white"/>
</svg>