<svg xmlns="http://www.w3.org/2000/svg" width="59" height="62" viewBox="0 0 59 62" fill="none">
  <path d="M17.4714 0.671875H41.8187C51.0939 0.671875 58.63 8.5827 58.63 18.3191V43.8771C58.63 48.5575 56.8588 53.0461 53.7061 56.3556C50.5533 59.6651 46.2773 61.5243 41.8187 61.5243H17.4714C8.19623 61.5243 0.660156 53.6135 0.660156 43.8771V18.3191C0.660156 13.6388 2.43134 9.15012 5.58406 5.84062C8.73678 2.53113 13.0128 0.671875 17.4714 0.671875ZM16.8917 6.75712C14.1243 6.75712 11.4702 7.91114 9.51335 9.96531C7.55649 12.0195 6.45714 14.8055 6.45714 17.7106V44.4856C6.45714 50.5405 11.1237 55.4391 16.8917 55.4391H42.3984C45.1658 55.4391 47.8199 54.2851 49.7768 52.2309C51.7336 50.1767 52.833 47.3907 52.833 44.4856V17.7106C52.833 11.6557 48.1664 6.75712 42.3984 6.75712H16.8917ZM44.8621 11.3211C45.823 11.3211 46.7446 11.7218 47.4241 12.435C48.1035 13.1483 48.4852 14.1156 48.4852 15.1243C48.4852 16.133 48.1035 17.1004 47.4241 17.8137C46.7446 18.5269 45.823 18.9276 44.8621 18.9276C43.9012 18.9276 42.9797 18.5269 42.3002 17.8137C41.6207 17.1004 41.239 16.133 41.239 15.1243C41.239 14.1156 41.6207 13.1483 42.3002 12.435C42.9797 11.7218 43.9012 11.3211 44.8621 11.3211ZM29.6451 15.885C33.4887 15.885 37.1749 17.4878 39.8928 20.3408C42.6106 23.1938 44.1375 27.0633 44.1375 31.0981C44.1375 35.1329 42.6106 39.0024 39.8928 41.8554C37.1749 44.7084 33.4887 46.3112 29.6451 46.3112C25.8014 46.3112 22.1152 44.7084 19.3973 41.8554C16.6795 39.0024 15.1526 35.1329 15.1526 31.0981C15.1526 27.0633 16.6795 23.1938 19.3973 20.3408C22.1152 17.4878 25.8014 15.885 29.6451 15.885ZM29.6451 21.9702C27.3389 21.9702 25.1271 22.9319 23.4964 24.6437C21.8657 26.3555 20.9496 28.6772 20.9496 31.0981C20.9496 33.519 21.8657 35.8407 23.4964 37.5525C25.1271 39.2643 27.3389 40.226 29.6451 40.226C31.9512 40.226 34.163 39.2643 35.7937 37.5525C37.4244 35.8407 38.3405 33.519 38.3405 31.0981C38.3405 28.6772 37.4244 26.3555 35.7937 24.6437C34.163 22.9319 31.9512 21.9702 29.6451 21.9702Z" fill="white"/>
</svg>