<svg width="209" height="66" viewBox="0 0 209 66" fill="none" xmlns="http://www.w3.org/2000/svg">
<path d="M25.8764 28.6142C22.8845 28.6142 19.8925 28.6142 16.9005 28.6142C16.848 28.6142 16.7955 28.6142 16.743 28.6142C16.638 28.6142 16.5855 28.5617 16.5855 28.4568C16.5855 28.4043 16.5855 28.2993 16.5855 28.2468C16.5855 24.7824 16.5855 21.2655 16.5855 17.801C16.5855 17.5911 16.5855 17.3811 16.5855 17.1711L0.0507812 3.52344C0.0507812 3.78589 0.0507812 4.04835 0.0507812 4.25831C0.0507812 23.5751 0.0507812 42.8918 0.0507812 62.2086C0.0507812 62.471 0.0507804 62.681 0.103272 62.9435C0.208254 63.6783 0.628184 64.0983 1.31057 64.2557C1.52053 64.3082 1.7305 64.3082 1.94046 64.3082C6.13976 64.3082 10.3915 64.3082 14.5908 64.3082C14.7483 64.3082 14.8533 64.3082 15.0108 64.3082C15.9556 64.2033 16.4805 63.6783 16.5855 62.786C16.5855 62.6285 16.5855 62.4186 16.5855 62.2611C16.5855 55.6997 16.5855 49.1383 16.5855 42.5244C16.5855 42.052 16.533 42.1045 16.9529 42.1045C20.9423 42.1045 24.9841 42.1045 28.9734 42.1045C29.8658 42.1045 30.7581 42.1045 31.703 41.9995C32.9628 41.8945 34.2225 41.632 35.4298 41.2121C36.3747 40.8972 37.267 40.5297 38.1594 40.0573C38.9468 39.6374 39.7341 39.165 40.469 38.64C40.8889 38.3776 41.3089 38.0626 41.6763 37.7477L29.2884 27.6169C28.291 28.2468 27.1887 28.6142 25.8764 28.6142Z" fill="url(#paint0_linear_342_2480)"/>
<path d="M49.1334 20.0082C49.081 19.2733 48.976 18.4859 48.8185 17.751C48.556 16.4388 48.2411 15.1265 47.7162 13.9192C47.5587 13.4993 47.4012 13.1318 47.2438 12.7119C46.9288 11.977 46.5614 11.2946 46.1415 10.5598C45.4591 9.35245 44.6192 8.19765 43.6744 7.20031C43.0445 6.57042 42.4146 5.88804 41.7322 5.31063C41.3123 4.94319 40.8398 4.57575 40.4199 4.26081C39.4226 3.57842 38.3728 2.94853 37.2704 2.42362C36.1156 1.8987 34.9083 1.47877 33.6485 1.16383C32.4937 0.84888 31.2864 0.691406 30.0267 0.691406C20.6307 0.691406 11.2348 0.691406 1.7864 0.691406C1.41896 0.691406 1.10401 0.796389 0.789062 0.953862L16.7989 14.2866C19.7384 14.2866 22.6779 14.2866 25.6174 14.2866C26.9822 14.2866 28.242 14.6016 29.2918 15.4414C30.0267 16.0188 30.6566 16.7012 31.129 17.4886C31.7064 18.4334 32.0213 19.4308 32.1788 20.4806C32.3363 21.5304 32.2313 22.5802 31.9163 23.6301C31.6539 24.4699 31.2864 25.2573 30.814 25.9922L43.1495 36.2804C44.0943 35.3356 44.8817 34.2858 45.6165 33.1835C46.4039 31.9762 47.0863 30.6639 47.5587 29.2991C47.8212 28.5642 48.1361 27.8294 48.3461 27.042C48.766 25.4148 49.0285 23.735 49.081 22.0553C49.1859 21.3729 49.1859 20.6906 49.1334 20.0082Z" fill="url(#paint1_linear_342_2480)"/>
<path d="M43.2517 36.2805L43.1992 36.333C43.1467 36.3854 42.8843 36.6479 42.7793 36.7529C42.4119 37.1203 42.0444 37.4353 41.677 37.7502L29.2891 27.5669C29.814 27.1995 30.2864 26.7796 30.7588 26.2546C30.8113 26.1497 30.8638 26.0972 30.9163 25.9922L43.2517 36.2805Z" fill="#2C2052"/>
<path d="M0.839859 1.00781C0.787368 1.0603 0.682385 1.11279 0.629894 1.16529C0.367438 1.37525 0.209964 1.63771 0.104982 1.95265C0.0524906 2.21511 0 2.47757 0 2.74002C0 3.00248 0 3.31742 0 3.57988L16.5347 17.1751C16.5347 16.2303 16.5347 15.2854 16.5347 14.3931C16.6397 14.3931 16.7447 14.3931 16.8497 14.3931L0.839859 1.00781Z" fill="#2C2052"/>
<path d="M74.5408 36.4363C74.5408 42.1053 74.6458 42.7877 78.1102 43.1552L79.58 43.3126C79.8949 43.5751 79.7899 44.5199 79.475 44.6774C76.378 44.5724 74.6458 44.5199 72.4412 44.5199C70.184 44.5199 68.2419 44.5724 65.8798 44.6774C65.5648 44.5199 65.4598 43.6276 65.7748 43.3126L66.9296 43.1552C70.0791 42.7352 70.184 42.0529 70.184 36.4363V16.5421C70.184 11.9754 70.079 11.0306 67.6645 10.7681L65.7223 10.5581C65.3548 10.2432 65.4073 9.40333 65.8273 9.19337C68.6618 8.82593 72.0212 8.77344 76.483 8.77344C80.9447 8.77344 84.3042 9.35084 86.8237 10.9256C89.2908 12.5003 91.128 15.2823 91.128 19.0092C91.128 23.9959 88.031 26.463 85.7214 27.5653C83.3593 28.7201 80.4723 29.1925 78.2677 29.1925C77.9002 29.035 77.9002 28.2477 78.2152 28.0902C84.0417 26.9879 86.1414 23.7334 86.1414 19.0092C86.1414 13.7601 83.0444 10.4007 77.4803 10.4007C74.6458 10.4007 74.5933 10.6106 74.5933 12.3428V36.4363H74.5408Z" fill="white"/>
<path d="M112.073 32.028C111.706 30.8207 111.496 30.6633 109.869 30.6633H101.732C100.368 30.6633 100.053 30.8207 99.6852 31.9755L97.7955 37.6446C97.0082 40.0592 96.5883 41.5289 96.5883 42.1063C96.5883 42.7362 96.8507 43.0512 98.163 43.2086L99.9477 43.3661C100.315 43.6286 100.315 44.5209 99.8427 44.7309C98.4254 44.6259 96.7457 44.6259 94.2262 44.5734C92.4415 44.5734 90.4993 44.6784 89.0295 44.7309C88.7146 44.5209 88.6096 43.6286 88.9245 43.3661L90.7092 43.2086C92.0215 43.1037 93.1763 42.5263 93.9637 40.5841C94.9085 38.117 96.4308 34.6001 98.6879 28.5636L104.199 14.0235C104.934 12.0814 105.302 11.0315 105.092 10.1917C106.404 9.82425 107.296 8.82692 107.874 8.14453C108.189 8.14453 108.556 8.24951 108.661 8.61695C109.344 10.9791 110.236 13.4461 111.023 15.8607L118.425 37.5396C119.999 42.1588 120.682 42.9987 122.991 43.2611L124.461 43.4186C124.829 43.6811 124.724 44.5734 124.461 44.7834C122.256 44.6784 120.367 44.6259 117.952 44.6259C115.38 44.6259 113.333 44.7309 111.758 44.7834C111.338 44.5734 111.286 43.6811 111.653 43.4186L113.228 43.2611C114.383 43.1562 115.118 42.8412 115.118 42.3163C115.118 41.7389 114.855 40.7416 114.435 39.4818L112.073 32.028ZM101.417 27.1988C100.998 28.4586 101.05 28.5111 102.572 28.5111H109.186C110.761 28.5111 110.866 28.3011 110.393 26.8314L107.506 18.0654C107.086 16.7531 106.614 15.3358 106.247 14.6534H106.142C105.984 14.9159 105.459 16.2282 104.829 17.8554L101.417 27.1988Z" fill="white"/>
<path d="M130.128 17.1195C130.128 11.398 130.023 10.5056 126.821 10.2432L125.456 10.1382C125.141 9.92824 125.246 8.93091 125.561 8.77344C128.238 8.87842 130.075 8.93091 132.332 8.93091C134.484 8.93091 136.321 8.87842 138.999 8.77344C139.313 8.93091 139.418 9.92824 139.104 10.1382L137.739 10.2432C134.537 10.5056 134.432 11.4505 134.432 17.1195V36.3313C134.432 42.0529 134.537 42.7877 137.739 43.1552L139.104 43.3126C139.418 43.5226 139.313 44.5199 138.999 44.6774C136.321 44.5724 134.484 44.5199 132.332 44.5199C130.075 44.5199 128.238 44.5724 125.561 44.6774C125.246 44.5199 125.141 43.6276 125.456 43.3126L126.821 43.1552C130.023 42.7877 130.128 42.0004 130.128 36.3313V17.1195Z" fill="white"/>
<path d="M147.764 17.0146C147.764 11.398 147.659 10.6106 144.457 10.2432L143.617 10.1382C143.302 9.92824 143.407 8.93091 143.722 8.77344C146.032 8.87842 147.869 8.93091 150.074 8.93091H160.204C163.669 8.93091 166.818 8.93091 167.501 8.77344C167.816 9.66579 168.131 13.5501 168.341 15.9647C168.131 16.2797 167.238 16.3847 166.976 16.0697C166.188 13.5501 165.663 11.6605 162.881 10.9256C161.727 10.6631 160.047 10.6106 157.632 10.6106H153.748C152.121 10.6106 152.121 10.7156 152.121 12.7628V23.5235C152.121 25.0457 152.278 25.0457 153.905 25.0457H157.055C159.312 25.0457 160.992 24.9407 161.622 24.7308C162.252 24.5208 162.671 24.2058 162.934 22.8411L163.354 20.6364C163.616 20.3215 164.561 20.3215 164.771 20.6889C164.771 22.0012 164.561 24.1009 164.561 26.148C164.561 28.0902 164.771 30.1374 164.771 31.3447C164.561 31.7121 163.616 31.7121 163.354 31.3971L162.881 29.2975C162.671 28.3527 162.304 27.5128 161.202 27.2503C160.467 27.0404 159.155 26.9879 157.055 26.9879H153.905C152.278 26.9879 152.121 27.0404 152.121 28.4576V36.0689C152.121 38.9034 152.278 40.7406 153.171 41.6854C153.8 42.3153 154.955 42.9452 159.679 42.9452C163.826 42.9452 165.401 42.7352 166.556 42.1578C167.501 41.6329 168.97 39.7432 170.388 36.9087C170.755 36.6463 171.542 36.8037 171.752 37.2762C171.385 39.1658 170.02 43.3126 169.338 44.7824C164.509 44.6774 159.679 44.6249 154.903 44.6249H150.074C147.764 44.6249 145.927 44.6774 142.725 44.7824C142.41 44.6249 142.305 43.7326 142.62 43.4176L144.405 43.2602C147.502 42.9977 147.764 42.1578 147.764 36.5413V17.0146Z" fill="white"/>
<path d="M178.736 17.067C178.736 11.9229 178.578 11.0306 176.374 10.7681L174.641 10.5581C174.274 10.2957 174.274 9.40333 174.694 9.19337C177.738 8.93091 181.413 8.77344 186.714 8.77344C190.074 8.77344 193.223 9.03589 195.743 10.4007C198.315 11.7654 200.205 14.18 200.205 17.9594C200.205 23.1035 196.163 25.8856 193.486 26.9879C193.223 27.3028 193.486 27.8277 193.748 28.3002C198.052 35.2815 200.939 39.5858 204.561 42.6303C205.454 43.4176 206.818 44.0475 208.288 44.1525C208.551 44.2575 208.603 44.6774 208.341 44.8874C207.868 45.0449 206.976 45.1498 205.979 45.1498C201.412 45.1498 198.63 43.7851 194.798 38.3785C193.381 36.3838 191.176 32.6569 189.496 30.2423C188.709 29.035 187.817 28.5101 185.664 28.5101C183.25 28.5101 183.145 28.5626 183.145 29.7174V36.4888C183.145 42.1578 183.25 42.7877 186.399 43.2077L187.554 43.3651C187.869 43.6276 187.764 44.5724 187.449 44.7299C185.035 44.6249 183.197 44.5724 181.045 44.5724C178.788 44.5724 176.846 44.6249 174.326 44.7299C174.011 44.5724 173.906 43.7851 174.221 43.3651L175.586 43.2077C178.736 42.8402 178.841 42.1053 178.841 36.4888V17.067H178.736ZM183.145 24.7833C183.145 25.7281 183.145 26.358 183.302 26.568C183.46 26.7254 184.247 26.8304 187.029 26.8304C188.971 26.8304 191.019 26.6204 192.593 25.4131C194.063 24.2583 195.27 22.3687 195.27 18.7468C195.27 14.495 192.646 10.4532 186.662 10.4532C183.302 10.4532 183.145 10.6631 183.145 12.1854V24.7833Z" fill="white"/>
<path d="M68.24 53.6585C69.6573 52.5562 71.3895 52.0312 73.3842 52.0312C74.434 52.0312 75.8513 52.2412 76.7436 52.5037C76.9536 52.5562 77.1111 52.6087 77.2685 52.5562C77.2685 52.9761 77.3735 54.1834 77.531 55.3907C77.426 55.5482 77.1635 55.5482 77.0061 55.4432C76.7436 54.1309 75.8513 52.6611 73.0692 52.6611C70.1297 52.6611 67.6626 54.4983 67.6626 58.4877C67.6626 62.5295 70.1822 64.7341 73.3317 64.7341C75.7988 64.7341 76.9011 63.1069 77.321 62.0046C77.4785 61.8996 77.7409 61.9521 77.7934 62.0571C77.636 63.0544 77.1635 64.3142 76.9011 64.6816C76.6911 64.7341 76.4287 64.7866 76.2187 64.8916C75.7988 65.0491 74.434 65.3115 73.1742 65.3115C71.442 65.3115 69.8148 64.9441 68.3975 64.0517C66.8753 63.0019 65.668 61.2697 65.668 58.8026C65.8254 56.598 66.7703 54.7608 68.24 53.6585Z" fill="white"/>
<path d="M88.7656 58.7479C88.7656 54.9161 91.6526 51.9766 95.5895 51.9766C99.9987 51.9766 102.203 55.1785 102.203 58.538C102.203 62.4223 99.2639 65.2043 95.5895 65.2043C91.3377 65.2568 88.7656 62.2123 88.7656 58.7479ZM100.261 59.1679C100.261 56.0184 98.8439 52.6065 95.222 52.6065C93.2274 52.6065 90.6553 53.9712 90.6553 58.1705C90.6553 61.005 92.0201 64.6794 95.7994 64.6794C98.1091 64.6269 100.261 62.9472 100.261 59.1679Z" fill="white"/>
<path d="M115.063 55.1778C115.063 53.1831 115.01 52.8682 113.803 52.7632L113.331 52.7107C113.226 52.6582 113.278 52.2908 113.383 52.2383C114.433 52.2908 115.115 52.2908 115.85 52.2908C116.585 52.2908 117.268 52.2908 118.212 52.2383C118.317 52.2908 118.37 52.6582 118.265 52.7107L117.792 52.7632C116.638 52.8682 116.638 53.1831 116.638 55.1778V61.8442C116.638 63.0515 116.69 63.5239 117.058 63.8913C117.268 64.1013 117.635 64.3113 119.157 64.3113C120.784 64.3113 121.204 64.2588 121.467 64.0488C121.834 63.8388 122.359 63.1565 122.727 62.1591C122.832 62.0541 123.199 62.1591 123.199 62.2641C123.199 62.4741 122.674 64.4162 122.412 64.9412C121.414 64.8887 119.63 64.8887 117.635 64.8887H115.85C115.063 64.8887 114.433 64.8887 113.383 64.9412C113.278 64.8887 113.226 64.5737 113.331 64.4687L113.908 64.4162C115.01 64.3113 115.063 64.0488 115.063 62.0016V55.1778Z" fill="white"/>
<path d="M135.219 55.1778C135.219 53.1831 135.167 52.8682 133.959 52.7632L133.487 52.7107C133.382 52.6582 133.434 52.2908 133.539 52.2383C134.589 52.2908 135.272 52.2908 136.006 52.2908C136.741 52.2908 137.424 52.2908 138.369 52.2383C138.474 52.2908 138.526 52.6582 138.421 52.7107L137.949 52.7632C136.794 52.8682 136.794 53.1831 136.794 55.1778V61.8442C136.794 63.0515 136.846 63.5239 137.214 63.8913C137.424 64.1013 137.791 64.3113 139.313 64.3113C140.941 64.3113 141.361 64.2588 141.623 64.0488C141.99 63.8388 142.515 63.1565 142.883 62.1591C142.988 62.0541 143.355 62.1591 143.355 62.2641C143.355 62.4741 142.83 64.4162 142.568 64.9412C141.571 64.8887 139.786 64.8887 137.791 64.8887H136.006C135.219 64.8887 134.589 64.8887 133.539 64.9412C133.434 64.8887 133.382 64.5737 133.487 64.4687L134.064 64.4162C135.167 64.3113 135.219 64.0488 135.219 62.0016V55.1778Z" fill="white"/>
<path d="M155.375 55.1778C155.375 53.1831 155.323 52.9207 154.221 52.7632L153.906 52.7107C153.801 52.6582 153.853 52.2908 153.958 52.2383C154.798 52.2908 155.428 52.2908 156.215 52.2908H159.837C161.044 52.2908 162.199 52.2908 162.409 52.2383C162.514 52.5532 162.619 53.918 162.724 54.7579C162.672 54.8628 162.357 54.9153 162.252 54.8104C161.989 53.918 161.779 53.2356 160.782 52.9732C160.362 52.8682 159.785 52.8682 158.945 52.8682H157.58C157.003 52.8682 157.003 52.9207 157.003 53.6555V57.4874C157.003 58.0123 157.055 58.0123 157.632 58.0123H158.735C159.522 58.0123 160.152 57.9598 160.362 57.9073C160.572 57.8548 160.729 57.6974 160.834 57.2249L160.992 56.4376C161.097 56.3326 161.412 56.3326 161.464 56.4376C161.464 56.91 161.412 57.6449 161.412 58.3798C161.412 59.0621 161.464 59.797 161.464 60.2169C161.412 60.3744 161.044 60.3744 160.992 60.2169L160.834 59.4821C160.782 59.1146 160.624 58.8522 160.257 58.7472C159.995 58.6947 159.522 58.6422 158.787 58.6422H157.685C157.108 58.6422 157.055 58.6422 157.055 59.1671V61.8442C157.055 62.8415 157.108 63.5239 157.423 63.8388C157.632 64.0488 158.052 64.2588 159.732 64.2588C161.202 64.2588 161.779 64.2063 162.199 63.9963C162.567 63.7863 163.039 63.1565 163.564 62.1591C163.721 62.0541 163.984 62.1066 164.036 62.3166C163.879 62.999 163.407 64.4687 163.197 64.9936C161.464 64.9411 159.785 64.9412 158.052 64.9412H156.32C155.48 64.9412 154.85 64.9411 153.696 64.9936C153.591 64.9411 153.538 64.6262 153.643 64.5212L154.273 64.4687C155.375 64.3637 155.48 64.1013 155.48 62.0541V55.1778H155.375Z" fill="white"/>
<path d="M186.031 62.9997C186.031 63.7871 186.136 64.207 186.503 64.3645C186.556 64.417 186.556 64.522 186.503 64.5745C186.293 64.5745 185.926 64.6269 185.558 64.7319C184.561 64.9944 183.144 65.2043 182.146 65.2043C179.889 65.2043 177.79 64.5745 176.32 63.1047C175.165 61.9499 174.535 60.4276 174.535 58.7479C174.535 57.1207 175.06 55.4935 176.267 54.2337C177.527 52.8689 179.417 51.9766 182.356 51.9766C183.459 51.9766 184.456 52.1865 184.771 52.239C185.138 52.2915 185.716 52.449 185.978 52.3965C185.978 53.0264 186.083 54.0237 186.241 55.1785C186.188 55.336 185.821 55.336 185.716 55.231C185.191 53.1839 183.721 52.5015 181.779 52.5015C178.052 52.5015 176.425 55.126 176.425 58.013C176.425 61.6874 178.315 64.5745 182.146 64.5745C183.354 64.5745 184.036 64.312 184.246 63.997C184.351 63.8396 184.456 63.5246 184.456 62.8947V62.1074C184.456 60.4801 184.404 60.3752 183.196 60.2702L182.356 60.1652C182.199 60.1127 182.199 59.7453 182.356 59.6928C182.934 59.7453 183.984 59.7453 185.086 59.7453C185.821 59.7453 186.503 59.7453 187.133 59.6928C187.291 59.7453 187.291 60.0602 187.133 60.1652L186.818 60.2177C186.031 60.3227 185.978 60.8476 185.978 61.8449V62.9997H186.031Z" fill="white"/>
<path d="M199.942 55.1778C199.942 53.1831 199.889 52.9207 198.787 52.7632L198.472 52.7107C198.367 52.6582 198.42 52.2908 198.525 52.2383C199.364 52.2908 199.994 52.2908 200.782 52.2908H204.404C205.611 52.2908 206.766 52.2908 206.976 52.2383C207.081 52.5532 207.186 53.918 207.291 54.7579C207.238 54.8628 206.923 54.9153 206.818 54.8104C206.556 53.918 206.346 53.2356 205.348 52.9732C204.928 52.8682 204.351 52.8682 203.511 52.8682H202.146C201.569 52.8682 201.569 52.9207 201.569 53.6555V57.4874C201.569 58.0123 201.621 58.0123 202.199 58.0123H203.301C204.089 58.0123 204.718 57.9598 204.928 57.9073C205.138 57.8548 205.296 57.6974 205.401 57.2249L205.558 56.4376C205.663 56.3326 205.978 56.3326 206.031 56.4376C206.031 56.91 205.978 57.6449 205.978 58.3798C205.978 59.0621 206.031 59.797 206.031 60.2169C205.978 60.3744 205.611 60.3744 205.558 60.2169L205.401 59.4821C205.348 59.1146 205.191 58.8522 204.823 58.7472C204.561 58.6947 204.089 58.6422 203.354 58.6422H202.251C201.674 58.6422 201.621 58.6422 201.621 59.1671V61.8442C201.621 62.8415 201.674 63.5239 201.989 63.8388C202.199 64.0488 202.619 64.2588 204.299 64.2588C205.768 64.2588 206.346 64.2063 206.766 63.9963C207.133 63.7863 207.605 63.1565 208.13 62.1591C208.288 62.0541 208.55 62.1066 208.603 62.3166C208.445 62.999 207.973 64.4687 207.763 64.9936C206.031 64.9411 204.351 64.9412 202.619 64.9412H200.887C200.047 64.9412 199.417 64.9411 198.262 64.9936C198.157 64.9411 198.105 64.6262 198.21 64.5212L198.839 64.4687C199.942 64.3637 200.047 64.1013 200.047 62.0541V55.1778H199.942Z" fill="white"/>
<defs>
<linearGradient id="paint0_linear_342_2480" x1="-12.069" y1="46.8427" x2="26.725" y2="21.5529" gradientUnits="userSpaceOnUse">
<stop offset="0.1723" stop-color="#472F91"/>
<stop offset="0.9975" stop-color="#5A4CD8"/>
</linearGradient>
<linearGradient id="paint1_linear_342_2480" x1="21.8967" y1="18.7669" x2="37.8562" y2="6.24476" gradientUnits="userSpaceOnUse">
<stop offset="0.129" stop-color="#8CC63E"/>
<stop offset="0.9981" stop-color="#C3FC54"/>
</linearGradient>
</defs>
</svg>
